<?xml version="1.0" encoding="UTF-8" standalone="no"?>
<svg xmlns="http://www.w3.org/2000/svg" height="60" width="60" version="1.0" viewBox="0 0 60 60">
 <path d="M30 0c-16.57 0-30 13.43-30 30s13.43 30 30 30 30-13.43 30-30-13.43-30-30-30zm0 5c13.81 0 25 11.19 25 25s-11.19 25-25 25-25-11.19-25-25 11.19-25 25-25z" fill="#0082c9"/>
 <path d="M30 13c-9.39 0-17 7.61-17 17s7.61 17 17 17 17-7.61 17-17-7.61-17-17-17zm0 3c7.73 0 14 6.27 14 14s-6.27 14-14 14-14-6.27-14-14 6.27-14 14-14z" fill="#0082c9"/>
 <path d="M30 23c-3.87 0-7 3.13-7 7s3.13 7 7 7 7-3.13 7-7-3.13-7-7-7z" fill="#0082c9"/>
</svg>
